<?xml version="1.0" encoding="UTF-8" standalone="no"?>
<svg
   version="1.1"
   width="500"
   height="500"
   id="svg26"
   sodipodi:docname="berth-icon.svg"
   inkscape:version="1.2.2 (b0a8486541, 2022-12-01)"
   xmlns:inkscape="http://www.inkscape.org/namespaces/inkscape"
   xmlns:sodipodi="http://sodipodi.sourceforge.net/DTD/sodipodi-0.dtd"
   xmlns="http://www.w3.org/2000/svg"
   xmlns:svg="http://www.w3.org/2000/svg">
  <defs
     id="defs30" />
  <sodipodi:namedview
     id="namedview28"
     pagecolor="#ffffff"
     bordercolor="#000000"
     borderopacity="0.25"
     inkscape:showpageshadow="2"
     inkscape:pageopacity="0.0"
     inkscape:pagecheckerboard="0"
     inkscape:deskcolor="#d1d1d1"
     showgrid="false"
     inkscape:zoom="0.97753906"
     inkscape:cx="507.3966"
     inkscape:cy="444.48352"
     inkscape:window-width="2494"
     inkscape:window-height="1371"
     inkscape:window-x="0"
     inkscape:window-y="0"
     inkscape:window-maximized="1"
     inkscape:current-layer="svg26" />
  <path
     d="m -2.5e-6,-9.0000002e-7 c 164.9999925,0 329.9999925,0 500.0000025,0 C 500,165 500,330 500,500 334.99999,500 169.99999,500 -2.5e-6,500 c 0,-165 0,-330 0,-500.00000090000003 z"
     fill="#f8f8f8"
     id="path2"
     style="stroke-width:0.488281" />
  <g
     id="g324"
     transform="matrix(1.0213785,0,0,1.0235868,-61.536171,-47.949818)">
    <path
       d="m 311.39961,80.819492 c 0.63237,0.272314 0.63237,0.272314 1.27754,0.550131 1.3796,0.596242 2.75418,1.203858 4.12902,1.811697 0.96979,0.421703 1.93988,0.842641 2.91027,1.262848 1.99435,0.86508 3.98677,1.734696 5.97764,2.608282 2.71908,1.192575 5.44325,2.372141 8.1697,3.546609 8.20214,3.535499 16.38931,7.107488 24.5736,10.686831 5.93827,2.59677 11.87853,5.18862 17.82102,7.7751 0.50664,0.22054 1.01327,0.44106 1.53527,0.66829 6.2038,2.69938 12.41286,5.38529 18.62962,8.0527 0.61094,0.26217 1.22189,0.52434 1.85136,0.79446 0.61808,0.26521 1.23617,0.53044 1.87297,0.80371 14.07094,6.03823 28.10408,12.16307 42.11751,18.34231 7.58087,3.34247 15.16616,6.67207 22.77261,9.95198 7.17195,3.09286 14.32322,6.23341 21.46664,9.39581 0.49703,0.21994 0.99407,0.43985 1.50616,0.66644 1.39763,0.61865 2.79497,1.23798 4.19217,1.85764 0.41922,0.18568 0.83845,0.37135 1.27038,0.56266 1.45638,0.64688 2.90489,1.29083 4.32322,2.02326 0,0.43518 0,0.87035 0,1.3187 -8.22057,3.63536 -16.50097,7.11149 -24.79236,10.56977 -7.59751,3.17052 -15.17123,6.39524 -22.72952,9.66418 -7.63574,3.30137 -15.29391,6.53015 -22.98661,9.68799 -6.50676,2.67504 -12.99021,5.4065 -19.46787,8.15579 -0.52098,0.22111 -1.04197,0.44223 -1.57875,0.67003 -2.66386,1.13077 -5.32745,2.26221 -7.99091,3.39397 -4.85699,2.06362 -9.71568,4.12299 -14.57452,6.18198 -1.06172,0.44994 -2.12343,0.89993 -3.18509,1.34998 -6.30084,2.67093 -12.60536,5.33197 -18.91578,7.97863 -5.0502,2.11843 -10.09062,4.26 -15.12491,6.41842 -0.57005,0.24438 -1.1401,0.48877 -1.72742,0.74058 -2.82377,1.21102 -5.64698,2.42346 -8.46942,3.63778 -5.43599,2.33664 -10.87914,4.65515 -16.3372,6.93627 -0.50602,0.21385 -1.01203,0.42769 -1.53337,0.64803 -7.97232,3.31196 -14.56041,5.30218 -22.76375,1.77045 -0.55152,-0.22678 -1.10307,-0.45354 -1.67131,-0.68721 -2.06852,-0.85644 -4.12862,-1.73278 -6.18914,-2.60956 -0.90698,-0.38274 -1.8141,-0.76509 -2.72137,-1.14711 -5.28019,-2.22359 -10.55567,-4.45874 -15.82753,-6.70333 -5.6075,-2.38718 -11.22269,-4.75418 -16.84314,-7.10867 -0.83647,-0.3506 -1.67292,-0.70119 -2.50937,-1.05181 -2.47513,-1.03726 -4.95051,-2.07388 -7.42593,-3.11036 -3.31202,-1.38676 -6.62385,-2.77397 -9.9353,-4.16218 -0.41563,-0.17422 -0.83124,-0.34843 -1.25946,-0.52794 -7.69698,-3.22746 -15.38214,-6.48444 -23.06595,-9.74524 -7.6836,-3.26013 -15.37624,-6.49627 -23.07677,-9.71351 -9.92753,-4.14785 -19.83337,-8.34845 -29.73276,-12.56732 -5.87074,-2.50145 -11.74943,-4.98268 -17.62952,-7.46058 -0.6954,-0.29323 -1.39079,-0.58646 -2.10727,-0.88857 -8.22471,-3.46773 -16.44919,-6.93507 -24.70608,-10.32046 0,-0.43516 0,-0.87035 0,-1.3187 0.32515,-0.13288 0.65029,-0.26563 0.98529,-0.40248 7.37898,-3.01895 14.71792,-6.11784 22.01447,-9.34324 2.75617,-1.2182 5.51452,-2.43106 8.2725,-3.64484 0.57503,-0.25322 1.15006,-0.50644 1.7425,-0.76734 6.47843,-2.85173 12.96628,-5.68031 19.45483,-8.50742 1.20819,-0.52654 2.41638,-1.0531 3.62458,-1.57965 2.43218,-1.05993 4.86442,-2.11971 7.2967,-3.17942 5.40549,-2.35524 10.81012,-4.71249 16.21483,-7.06961 1.79312,-0.78198 3.58629,-1.56383 5.37946,-2.34567 5.39917,-2.3541 10.79814,-4.70868 16.19617,-7.06554 15.74772,-6.87562 31.50848,-13.71807 47.28277,-20.528359 5.46369,-2.35898 10.92641,-4.720398 16.38907,-7.081924 1.70358,-0.736401 3.40725,-1.472595 5.11093,-2.208758 0.53361,-0.230781 1.06723,-0.461556 1.61701,-0.699332 1.04926,-0.45326 2.09893,-0.905505 3.14901,-1.356675 2.67829,-1.152921 5.34432,-2.328234 7.99819,-3.539977 0.54499,-0.245708 1.09001,-0.491417 1.65152,-0.744575 1.03248,-0.46625 2.06225,-0.938994 3.08858,-1.419518 4.78229,-2.145448 8.16347,-1.996124 13.01327,0.123572 z"
       fill="#1d69b8"
       id="path4"
       style="stroke-width:0.648799" />
    <path
       d="m 134.53922,309.21633 c 3.86616,1.27233 7.61307,2.71864 11.34429,4.36308 0.51217,0.22353 1.02435,0.44708 1.55204,0.67739 1.62072,0.70792 3.24015,1.41887 4.85953,2.13002 1.60879,0.70395 3.21783,1.40727 4.82689,2.11058 1.03769,0.45385 2.07519,0.90818 3.11246,1.36306 3.54447,1.55372 7.09856,3.08047 10.66362,4.58316 1.30754,0.59722 1.30754,0.59722 1.94596,1.25658 0.114,0.87896 0.19123,1.76311 0.25186,2.64771 0.99901,13.01982 3.9385,25.22571 13.79323,34.27615 7.93205,6.35583 15.98528,9.34053 25.97542,9.39581 0.602,0.0136 1.20399,0.0271 1.82423,0.0412 10.60559,0.0602 20.16039,-5.35752 27.74229,-12.7338 1.16219,-1.27894 2.17745,-2.54688 3.19206,-3.95611 2.72867,0.44461 5.06994,1.3863 7.61109,2.49317 14.89114,6.4785 29.81202,12.87335 44.7388,19.26553 0,41.55911 0,83.11824 0,125.93673 -3.5015,-1.20545 -6.63719,-2.30729 -9.94029,-3.86597 -0.37717,-0.17692 -0.7543,-0.35383 -1.14289,-0.53611 -1.22792,-0.57669 -2.45398,-1.15744 -3.68013,-1.73816 -0.87371,-0.41102 -1.7476,-0.82172 -2.62161,-1.23211 -1.81398,-0.85209 -3.62734,-1.70557 -5.44022,-2.56013 -4.25057,-2.00266 -8.50846,-3.98857 -12.76639,-5.97445 -0.41062,-0.19163 -0.82122,-0.38327 -1.24426,-0.58072 -6.42429,-2.99811 -12.86072,-5.96709 -19.30529,-8.91843 -5.2328,-2.39694 -10.45808,-4.81088 -15.6804,-7.23198 -12.12784,-5.62096 -24.27442,-11.19713 -36.44504,-16.71857 -5.60986,-2.54656 -11.20927,-5.11699 -16.8076,-7.69043 -5.45984,-2.50835 -10.92785,-4.99702 -16.39908,-7.47874 -5.49462,-2.49413 -10.98025,-5.00883 -16.45894,-7.54009 -3.59355,-1.65608 -7.19338,-3.2905 -10.8151,-4.87961 -1.849,-0.8115 -3.69548,-1.62903 -5.54204,-2.44644 -0.88944,-0.39148 -1.78018,-0.77987 -2.6723,-1.16484 -8.31145,-3.58792 -15.89184,-8.0926 -19.74834,-16.89965 -1.831646,-4.73411 -2.017775,-9.49111 -1.981533,-14.53099 -1.84e-4,-0.68899 -3.76e-4,-1.37799 -5.68e-4,-2.08786 6.38e-4,-2.25827 0.01085,-4.5164 0.02081,-6.77464 0.0027,-1.57329 0.0045,-3.14658 0.0057,-4.71987 0.0051,-4.12662 0.01736,-8.25319 0.03153,-12.37981 0.01309,-4.21661 0.01889,-8.43322 0.02534,-12.64984 0.01366,-8.26299 0.03517,-16.52593 0.06231,-24.7889 0.813121,-0.0756 1.626261,-0.15118 2.464031,-0.22906 1.0881,-0.1079 2.17618,-0.21618 3.26423,-0.32468 0.5334,-0.0487 1.0668,-0.0975 1.61637,-0.14771 9.34885,-0.9536 17.73584,-4.85786 24.10221,-12.16111 1.38213,-1.79733 2.6708,-3.5439 3.66588,-5.59936 z"
       fill="#2165b4"
       id="path6"
       style="stroke-width:0.648799" />
    <path
       d="m 475.45184,309.87568 c 0.766,0.96078 1.49199,1.95594 2.19456,2.96711 6.17006,8.14324 14.78239,12.78569 24.61881,14.17612 1.34246,0.13003 2.68587,0.24998 4.02997,0.36058 0.68223,0.0567 1.36446,0.11343 2.06736,0.17193 0.51599,0.0419 1.03199,0.0837 1.56362,0.1268 0.0449,9.15938 0.0785,18.31874 0.0992,27.47822 0.0104,4.25357 0.0235,8.50707 0.0453,12.76061 0.021,4.10847 0.0323,8.21686 0.0373,12.32537 0.003,1.56382 0.0104,3.12762 0.0208,4.69139 0.014,2.19824 0.0158,4.39616 0.0149,6.59444 0.0104,0.9597 0.0104,0.9597 0.021,1.93877 -0.0327,7.56336 -1.85323,14.10563 -6.95332,19.66523 -3.72387,3.68706 -8.02093,5.6174 -12.71669,7.67981 -0.8331,0.37453 -1.66583,0.75001 -2.49816,1.12635 -1.68511,0.76034 -3.37225,1.51555 -5.06148,2.26605 -2.68938,1.19563 -5.36712,2.41786 -8.04454,3.64174 -4.40005,2.00955 -8.80854,3.99932 -13.21605,5.99134 -3.30824,1.49522 -6.61601,2.99157 -9.92347,4.48863 -0.56436,0.25538 -1.12874,0.51078 -1.71022,0.77389 -7.79723,3.53004 -15.56869,7.11319 -23.31745,10.75512 -6.27294,2.94571 -12.5875,5.77522 -18.95409,8.49874 -3.89534,1.674 -7.73027,3.4568 -11.54689,5.31256 -4.79979,2.32982 -9.64816,4.54446 -14.4973,6.76201 -1.0071,0.4614 -2.01418,0.92288 -3.02123,1.3844 -7.57686,3.47083 -15.16009,6.92677 -22.74565,10.37726 -4.74814,2.16059 -9.49237,4.32994 -14.23118,6.51226 -17.77436,8.18491 -17.77436,8.18491 -24.36201,11.06737 -0.47972,0.21116 -0.95946,0.42231 -1.45374,0.63988 -3.09589,1.33818 -3.09589,1.33818 -4.53139,1.33818 0,-41.12395 0,-82.24789 0,-124.61801 24.25632,-10.50567 24.25632,-10.50567 31.39198,-13.55799 2.66392,-1.14339 5.31402,-2.31636 7.96022,-3.50282 0.69915,-0.31007 1.39829,-0.62014 2.11864,-0.93963 1.3416,-0.5955 2.68045,-1.19775 4.01595,-1.80775 0.60163,-0.26544 1.20326,-0.53089 1.82312,-0.80438 0.52766,-0.23772 1.05534,-0.47544 1.599,-0.72037 1.84127,-0.51383 2.9113,-0.36877 4.71781,0.23359 1.24039,1.19323 2.34646,2.36951 3.47137,3.66765 6.94241,7.53571 15.92079,12.05128 26.10199,12.43244 11.69801,0.10843 22.56042,-3.55188 31.0999,-11.95837 7.70652,-8.06315 10.8287,-18.16349 11.22802,-29.23841 0.037,-0.85613 0.037,-0.85613 0.0748,-1.72952 0.0594,-1.38763 0.11271,-2.77552 0.1646,-4.16347 9.58369,-4.33644 19.18145,-8.63944 28.8483,-12.77499 1.09594,-0.47658 1.09594,-0.47658 2.21402,-0.96279 0.67415,-0.28575 1.34831,-0.57149 2.04288,-0.8659 0.88533,-0.37912 0.88533,-0.37912 1.78854,-0.76592 1.49583,-0.45491 1.49583,-0.45491 3.41106,0.20445 z"
       fill="#2ca95f"
       id="path8"
       style="stroke-width:0.648799" />
    <path
       d="m 110.91793,177.34541 c 1.97129,0.66053 3.87341,1.47162 5.78562,2.29486 0.83474,0.35231 0.83474,0.35231 1.68635,0.71173 1.76827,0.74922 3.53274,1.50726 5.2963,2.26824 0.55831,0.24042 1.11664,0.48083 1.69188,0.72854 3.41595,1.4739 6.82574,2.96253 10.23324,4.45717 3.14264,1.37815 6.28728,2.75147 9.43178,4.1251 0.6296,0.27511 1.2592,0.55023 1.90788,0.83369 5.69767,2.48839 11.40357,4.95597 17.11484,7.41082 0.4582,0.19699 0.91639,0.39397 1.38846,0.59693 5.44176,2.33886 10.88661,4.66993 16.33249,6.99853 2.20621,0.94345 4.41239,1.887 6.61856,2.83058 0.54734,0.23406 1.0947,0.4681 1.65863,0.70923 8.49345,3.63279 16.9701,7.30521 25.43907,10.99836 7.41391,3.23202 14.84411,6.41994 22.28923,9.5744 8.03788,3.40659 16.05692,6.8587 24.07048,10.32584 0.56853,0.24594 1.13706,0.49186 1.7228,0.74526 4.42559,1.9149 4.42559,1.9149 6.59083,2.85539 2.73346,1.18731 5.46951,2.36733 8.21107,3.53456 0.55013,0.2356 1.10026,0.47122 1.66704,0.71395 1.03981,0.44521 2.08068,0.88787 3.12277,1.32737 6.71007,2.88307 11.11057,6.97567 14.19526,13.83998 0.65882,1.96578 0.75779,3.46635 0.75402,5.54238 0.003,1.12193 0.003,1.12193 0.005,2.26653 -0.004,0.81432 -0.009,1.62864 -0.0139,2.46762 1.9e-4,0.86225 3.8e-4,1.7245 5.7e-4,2.61287 3.7e-4,2.35928 -0.006,4.71846 -0.016,7.07772 -0.008,2.46748 -0.009,4.93496 -0.0104,7.40245 -0.004,4.67024 -0.0144,9.34045 -0.0272,14.01067 -0.0142,5.31787 -0.0213,10.63573 -0.0277,15.9536 -0.0132,10.93715 -0.0356,21.87427 -0.0641,32.81138 -1.00726,-0.30414 -2.0139,-0.61041 -3.02031,-0.91756 -0.56064,-0.17033 -1.12128,-0.34065 -1.69892,-0.51613 -2.5242,-0.82535 -4.91389,-1.90716 -7.33082,-3.01696 -7.12093,-3.21337 -14.29388,-6.29237 -21.473,-9.36369 -1.48199,-0.63412 -2.96355,-1.26931 -4.44509,-1.90457 -0.44702,-0.19073 -0.89404,-0.38144 -1.35463,-0.57792 -2.03828,-0.8745 -4.04932,-1.76496 -6.00457,-2.82445 -0.009,-0.78962 -0.0182,-1.57921 -0.0275,-2.39275 -0.24206,-10.35152 -2.19245,-18.76998 -8.27192,-27.27822 -0.2938,-0.42412 -0.58758,-0.84825 -0.89027,-1.28522 -6.44414,-8.53517 -17.06591,-13.153 -27.19989,-14.53929 -11.72887,-0.96268 -21.20163,2.60866 -30.12514,10.38484 -1.91857,1.69052 -3.57504,3.25135 -4.98759,5.43967 -2.76026,-0.38427 -5.08586,-1.08119 -7.64849,-2.19956 -0.73558,-0.31809 -1.47114,-0.6362 -2.22899,-0.96393 -0.79071,-0.3466 -1.5814,-0.69325 -2.37208,-1.03989 -1.23237,-0.53475 -2.46536,-1.06796 -3.69837,-1.60114 -0.84719,-0.36648 -1.69417,-0.73346 -2.54097,-1.10092 -4.52988,-1.96436 -9.07943,-3.87783 -13.63127,-5.78714 -0.74945,-0.3148 -1.4989,-0.6296 -2.27107,-0.95394 -1.7299,-0.72649 -3.46001,-1.45251 -5.19034,-2.17799 -0.009,-0.59156 -0.0182,-1.18314 -0.0275,-1.79262 -0.51085,-13.80436 -5.61358,-24.91721 -15.29446,-34.47189 -6.22256,-5.45201 -13.57049,-8.6367 -21.51932,-10.24108 -1.77449,-0.38715 -3.10407,-0.70568 -4.45404,-1.99443 -1.192141,-2.28627 -1.107169,-4.4493 -1.087813,-6.98187 -0.0032,-0.53962 -0.0066,-1.07922 -0.01022,-1.63519 -0.0084,-1.78313 -0.0032,-3.56589 0.0038,-5.34904 -0.0012,-1.24172 -0.0032,-2.48345 -0.0057,-3.72517 -0.0027,-2.60343 0.0012,-5.20674 0.01022,-7.81015 0.01085,-3.33014 0.0045,-6.65996 -0.0068,-9.9901 -0.0069,-2.56529 -0.0045,-5.13049 2.42e-4,-7.69577 0.0012,-1.22737 -2.8e-4,-2.45472 -0.0045,-3.68208 -0.0051,-1.72011 0.0027,-3.43973 0.01322,-5.15981 -0.0038,-0.50333 -0.0079,-1.00666 -0.01177,-1.52524 0.0459,-4.03189 1.072261,-6.86679 3.132391,-10.32431 2.87605,-1.8565 5.33551,-1.59251 8.61857,-1.03024 z"
       fill="#1f64b4"
       id="path10"
       style="stroke-width:0.648799" />
    <path
       d="m 506.53459,177.46903 c 1.97131,1.59576 3.20658,3.1188 3.56247,5.7604 0.0649,1.56158 0.0659,3.11127 0.0465,4.67418 2.7e-4,0.59214 5.6e-4,1.18428 6.3e-4,1.79436 -10e-4,1.95161 -0.0162,3.90285 -0.0313,5.85438 -0.004,1.35531 -0.006,2.71062 -0.008,4.06594 -0.008,3.56304 -0.0262,7.12594 -0.0473,10.68893 -0.0196,3.63742 -0.0284,7.27485 -0.038,10.91231 -0.0205,7.13407 -0.0532,14.26801 -0.0935,21.40198 -0.64128,0.1727 -1.28257,0.34539 -1.94329,0.52333 -0.85851,0.23327 -1.717,0.46665 -2.57547,0.70008 -0.42063,0.11303 -0.84127,0.22603 -1.27465,0.34248 -11.89088,3.24395 -22.48345,9.31408 -28.98669,20.40804 -1.03071,1.87523 -1.96491,3.78354 -2.88627,5.71896 -0.40118,0.78536 -0.40118,0.78536 -0.81048,1.58658 -1.23936,2.72303 -1.80173,5.2477 -2.0948,8.22905 -0.094,0.87955 -0.094,0.87955 -0.19,1.77684 -0.11558,1.17897 -0.20409,2.3612 -0.26214,3.54468 -0.22309,2.3437 -0.41077,4.02537 -2.19721,5.6013 -1.72667,0.93101 -3.47396,1.63184 -5.2984,2.33897 -0.87237,0.37046 -1.74334,0.74446 -2.61318,1.12119 -3.02766,1.30488 -6.07171,2.5655 -9.11765,3.82397 -1.55927,0.64704 -3.11822,1.29486 -4.67701,1.94313 -1.00642,0.41805 -2.01325,0.83501 -3.02055,1.25078 -2.20409,0.91175 -4.39988,1.83431 -6.57509,2.81755 -1.02551,0.46153 -1.02551,0.46153 -2.07173,0.93237 -0.58152,0.26901 -1.16305,0.53802 -1.76219,0.81518 -1.44498,0.48292 -1.44498,0.48292 -3.36021,-0.17643 -0.52669,-0.66637 -1.05338,-1.33273 -1.59603,-2.01928 -6.54869,-8.13289 -16.46975,-12.30183 -26.47856,-13.26758 -6.12149,-0.42556 -11.52786,0.36857 -17.25275,2.75912 -0.64273,0.26433 -1.28545,0.52867 -1.94766,0.80101 -10.41446,4.81304 -17.56763,14.12176 -21.67362,24.91382 -1.2017,3.70565 -1.64765,7.30057 -1.99504,11.16782 -0.0828,0.86504 -0.0828,0.86504 -0.1671,1.74755 -0.13417,1.40892 -0.26336,2.81833 -0.39152,4.22786 -7.12729,3.29219 -14.32758,6.39579 -21.54644,9.46662 -0.80219,0.34125 -1.60436,0.68253 -2.40652,1.0238 -0.59582,0.25344 -0.59582,0.25344 -1.20367,0.51201 -2.71393,1.15586 -5.42228,2.32487 -8.12814,3.50079 -0.7065,0.30655 -1.41301,0.61312 -2.14093,0.92899 -1.33576,0.58033 -2.67082,1.16245 -4.00504,1.74658 -0.59211,0.25684 -1.18423,0.51369 -1.79429,0.77831 -0.51738,0.22588 -1.03476,0.45174 -1.56783,0.68446 -1.25765,0.47972 -1.25765,0.47972 -2.53448,0.47972 -0.0748,-11.12527 -0.13094,-22.25046 -0.16538,-33.37594 -0.0163,-5.16645 -0.0387,-10.33271 -0.0754,-15.49905 -0.0319,-4.50605 -0.0524,-9.012 -0.0595,-13.51818 -0.004,-2.38326 -0.0137,-4.76618 -0.0371,-7.14935 -0.0261,-2.66871 -0.0264,-5.33684 -0.0248,-8.00569 -0.0118,-0.77924 -0.023,-1.55846 -0.0347,-2.36131 0.0403,-6.76163 1.71487,-12.43242 6.10299,-17.55135 6.82508,-6.43974 16.99084,-9.55071 25.41681,-13.14587 1.24107,-0.53246 2.48199,-1.0653 3.72279,-1.59848 1.84041,-0.79082 3.68092,-1.58139 5.52194,-2.37071 4.36213,-1.87021 8.71411,-3.76328 13.05984,-5.67388 11.66396,-5.11411 23.3731,-10.11781 35.07189,-15.14616 36.78267,-15.79254 36.78267,-15.79254 73.49824,-31.75043 0.42842,-0.18748 0.85684,-0.37496 1.29825,-0.5681 4.30586,-1.88556 8.60445,-3.78652 12.8865,-5.72926 1.02364,-0.46407 1.02364,-0.46407 2.06798,-0.93751 1.24788,-0.56766 2.49449,-1.13834 3.73946,-1.71278 0.54252,-0.24734 1.08506,-0.49468 1.64403,-0.74951 0.46436,-0.21402 0.9287,-0.42805 1.40713,-0.64856 3.32287,-1.2887 6.79692,-1.92389 10.11424,-0.41001 z"
       fill="#2caa5f"
       id="path12"
       style="stroke-width:0.648799" />
    <path
       d="m 304.99553,79.101562 c 2.68307,0.55422 4.76978,1.238988 7.27691,2.297436 0.395,0.165948 0.78998,0.331893 1.19695,0.50287 1.29968,0.5471 2.59756,1.098584 3.8954,1.650339 0.91527,0.386803 1.8306,0.773461 2.74598,1.159988 12.81714,5.421359 25.57241,10.995853 38.3263,16.573535 5.93836,2.59688 11.87874,5.18873 17.82133,7.77526 0.50664,0.22054 1.01327,0.44106 1.53527,0.66829 6.2038,2.69938 12.41286,5.38529 18.62962,8.0527 0.91641,0.39327 0.91641,0.39327 1.85136,0.79446 0.61808,0.26521 1.23617,0.53044 1.87297,0.80371 14.07094,6.03823 28.10408,12.16307 42.11751,18.34231 7.58087,3.34247 15.16616,6.67207 22.77261,9.95198 7.17195,3.09286 14.32322,6.23341 21.46664,9.39581 0.49703,0.21992 0.99407,0.43985 1.50616,0.66644 1.39763,0.61865 2.79497,1.23798 4.19217,1.85764 0.41922,0.18568 0.83845,0.37135 1.27038,0.56266 1.45638,0.64688 2.90489,1.29083 4.32322,2.02326 0,0.43518 0,0.87035 0,1.3187 -8.22057,3.63536 -16.50097,7.11149 -24.79236,10.56977 -7.59751,3.17052 -15.17123,6.39524 -22.72952,9.66418 -7.63574,3.30137 -15.29391,6.53015 -22.98661,9.68799 -6.50676,2.67504 -12.99021,5.40649 -19.46787,8.15579 -0.78148,0.33168 -0.78148,0.33168 -1.57875,0.67002 -2.66386,1.13078 -5.32745,2.26222 -7.99091,3.39396 -4.85699,2.06364 -9.71568,4.12301 -14.57452,6.182 -1.06172,0.44994 -2.12343,0.89993 -3.18509,1.34998 -6.30084,2.67093 -12.60536,5.33197 -18.91578,7.97863 -5.0502,2.11843 -10.09062,4.26 -15.12491,6.4184 -0.57005,0.2444 -1.1401,0.48879 -1.72742,0.7406 -2.82377,1.21102 -5.64698,2.42346 -8.46942,3.63778 -5.43599,2.33664 -10.87914,4.65515 -16.3372,6.93627 -0.50602,0.21385 -1.01203,0.42769 -1.53337,0.64803 -9.02319,3.74852 -9.02319,3.74852 -13.38705,3.74852 0,-54.17918 0,-108.35835 0,-164.179308 z"
       fill="#2dab60"
       id="path14"
       style="stroke-width:0.648799" />
    <path
       d="m 510.08576,255.68497 c 0.46333,-0.008 0.92664,-0.0162 1.40402,-0.0245 7.30104,-0.0201 13.51091,2.78784 18.87558,7.88522 5.62786,6.63628 8.78549,15.16951 8.51384,24.0072 -1.06451,8.92969 -4.91625,16.69616 -11.71589,22.32276 -8.3905,5.33628 -18.1967,7.0349 -27.84578,4.72108 -7.14181,-2.84506 -13.31701,-8.14785 -16.48402,-15.3918 -3.02157,-7.81055 -4.31469,-15.17805 -1.15962,-23.15984 4.54989,-10.08633 10.88213,-15.28116 20.59132,-19.57716 2.59224,-0.78966 5.13696,-0.78058 7.82055,-0.783 z"
       fill="#2da960"
       id="path16"
       style="stroke-width:0.648799" />
    <path
       d="m 97.670853,255.68497 c 0.463322,-0.008 0.926644,-0.0162 1.404011,-0.0245 8.668886,-0.0239 15.457616,3.79787 21.818256,9.58512 3.54017,4.13737 5.88777,8.30028 7.26195,13.6404 0.1753,0.59411 0.1753,0.59411 0.35413,1.20023 1.72036,8.69696 -0.56634,16.34202 -5.06241,23.66723 -4.19306,6.08989 -10.01558,9.62701 -16.99776,11.39704 -2.33486,0.27846 -4.63416,0.30697 -6.982641,0.28846 -0.590467,0.0135 -1.180936,0.0263 -1.789298,0.0399 -7.483946,-0.005 -12.882701,-3.20294 -18.245902,-8.3411 -6.090959,-6.40494 -8.286353,-14.14764 -8.295789,-22.96987 0.158365,-8.03273 3.203482,-15.2302 8.422975,-21.14764 5.273446,-5.10534 10.986286,-7.32893 18.112478,-7.33533 z"
       fill="#2165b3"
       id="path18"
       style="stroke-width:0.648799" />
    <path
       d="m 227.0443,307.69672 c 6.33247,4.42584 11.38754,10.459 13.19967,18.26361 1.24671,7.87911 -0.0567,15.48765 -4.18708,22.25579 -5.29513,7.07845 -11.29022,10.78912 -19.80078,12.42988 -7.40612,0.83721 -14.27643,-0.59535 -20.22724,-5.3109 -6.0042,-5.20773 -10.14619,-10.82001 -11.05502,-19.08522 -0.61649,-9.02784 1.27458,-16.17762 6.90535,-23.20619 9.26,-10.16271 23.45166,-12.42295 35.1651,-5.34697 z"
       fill="#1f63b2"
       id="path20"
       style="stroke-width:0.648799" />
    <path
       d="m 412.92726,308.86347 c 4.42649,3.62234 7.87049,7.53305 10.17471,12.8806 0.20327,0.46662 0.40654,0.93324 0.61596,1.41401 2.42657,6.40978 1.78523,13.36513 -0.61596,19.68534 -1.12913,2.31558 -2.40949,4.45815 -3.83048,6.59354 -0.69128,1.04034 -0.69128,1.04034 -1.39653,2.10169 -5.92907,6.12357 -13.09528,9.12786 -21.38683,9.31338 -7.61448,-0.0745 -13.52086,-3.22558 -19.1524,-8.36554 -6.15743,-7.21879 -8.12634,-13.41045 -8.03752,-23.09287 0.56189,-7.53597 4.63205,-14.03864 9.853,-19.14704 9.65568,-8.4512 23.3317,-8.73171 33.77605,-1.38311 z"
       fill="#2da960"
       id="path22"
       style="stroke-width:0.648799" />
    <path
       d="m 80.274093,262.40215 c 0,2.23912 -0.333034,2.68107 -1.596032,4.40943 -0.296262,0.41053 -0.592531,0.82105 -0.897769,1.24403 -0.230429,0.31022 -0.460858,0.62045 -0.698264,0.94009 -0.421353,-0.21759 -0.842706,-0.43517 -1.276827,-0.65936 0.62449,-0.86588 1.249746,-1.73117 1.875338,-2.59621 0.348109,-0.48192 0.696223,-0.96384 1.054877,-1.46035 0.900265,-1.21828 0.900265,-1.21828 1.538677,-1.87763 z"
       fill="#3772b5"
       id="path24"
       style="stroke-width:0.648799" />
  </g>
</svg>
